<?xml version="1.0" standalone="no"?>
<!DOCTYPE svg PUBLIC "-//W3C//DTD SVG 20010904//EN"
 "http://www.w3.org/TR/2001/REC-SVG-20010904/DTD/svg10.dtd">
<svg version="1.0" xmlns="http://www.w3.org/2000/svg"
 width="714.000000pt" height="714.000000pt" viewBox="0 0 714.000000 714.000000"
 preserveAspectRatio="xMidYMid meet">
<metadata>
Created by potrace 1.11, written by Peter Selinger 2001-2013
</metadata>
<g transform="translate(0.000000,714.000000) scale(0.100000,-0.100000)"
fill="#000000" stroke="none">
<path d="M4140 5563 c-32 -13 -127 -83 -167 -125 -23 -23 -57 -74 -75 -113
-31 -65 -33 -77 -33 -170 1 -147 44 -242 165 -365 147 -149 302 -220 571 -261
72 -11 169 -9 529 7 303 14 636 -66 979 -235 55 -27 101 -45 101 -39 0 5 -16
58 -35 117 -41 122 -144 336 -208 431 -40 60 -47 66 -98 79 -75 18 -595 21
-694 3 -109 -20 -175 -34 -235 -49 -30 -8 -71 -19 -90 -24 -110 -28 -187 -39
-283 -39 -429 0 -721 293 -585 588 13 27 54 80 99 125 43 42 77 77 76 76 -1 0
-9 -3 -17 -6z"/>
<path d="M2800 5122 c-65 -18 -136 -51 -80 -37 14 3 66 9 116 12 76 5 104 2
160 -15 233 -72 399 -302 549 -759 36 -109 65 -203 65 -209 0 -13 -10 -16
-130 -44 -227 -51 -553 -67 -740 -35 -286 48 -526 174 -723 380 -58 61 -140
173 -173 238 -32 62 -39 60 -13 -5 84 -216 269 -437 484 -579 270 -177 540
-249 941 -249 171 0 430 20 455 36 8 5 39 -47 39 -64 0 -13 -170 -38 -395 -58
-268 -25 -975 -25 -1230 -1 -619 58 -1114 159 -1625 330 -58 20 -106 34 -108
33 -1 -2 71 -35 160 -74 643 -280 1321 -458 2058 -542 324 -37 456 -43 898
-44 l453 -1 94 -130 c127 -174 296 -381 449 -547 69 -75 126 -140 126 -144 0
-19 -383 53 -615 117 -136 37 -431 136 -480 161 -37 19 -1 -9 90 -69 429 -285
900 -506 1318 -618 68 -18 83 -35 55 -63 -7 -7 -8 -12 -2 -13 85 -4 104 -4
104 3 0 16 26 8 40 -12 8 -11 19 -20 25 -20 6 0 17 -9 25 -20 8 -11 19 -20 25
-20 6 0 17 -9 25 -20 8 -11 18 -20 23 -20 5 0 15 -7 24 -15 15 -16 54 -11 61
6 2 5 10 9 18 9 8 0 14 5 14 10 0 6 7 10 15 10 8 0 15 5 15 10 0 6 4 10 10 10
9 0 35 19 64 46 6 6 29 17 50 24 25 8 34 15 26 20 -7 4 -11 12 -9 16 2 5 63
65 134 133 125 119 224 237 293 350 32 52 33 53 10 48 -13 -3 -84 -20 -158
-40 -74 -19 -180 -40 -235 -47 -55 -7 -115 -16 -134 -21 -38 -9 -41 -8 -232
127 -159 111 -304 223 -450 345 -171 144 -359 319 -359 335 0 18 12 18 159 -6
556 -91 1005 -291 1412 -630 l36 -30 48 98 c45 91 79 173 110 267 15 42 55
194 55 205 0 12 -163 107 -296 173 -495 244 -1019 354 -1650 346 l-251 -4 -27
37 c-34 47 -33 55 7 63 17 4 84 19 147 35 181 45 272 53 506 47 214 -5 290
-15 476 -62 323 -81 662 -240 984 -460 l122 -83 12 77 c17 100 17 391 0 509
l-13 94 -74 33 c-137 63 -411 158 -578 200 -263 67 -479 95 -727 95 -291 0
-547 -45 -791 -139 -56 -22 -140 -53 -185 -69 l-84 -31 -33 72 c-137 300 -203
421 -305 555 -208 277 -454 397 -680 334z"/>
<path d="M5688 2143 c7 -3 16 -2 19 1 4 3 -2 6 -13 5 -11 0 -14 -3 -6 -6z"/>
<path d="M4930 2130 c0 -5 5 -10 10 -10 6 0 10 5 10 10 0 6 -4 10 -10 10 -5 0
-10 -4 -10 -10z"/>
<path d="M4848 2123 c6 -2 18 -2 25 0 6 3 1 5 -13 5 -14 0 -19 -2 -12 -5z"/>
<path d="M4748 2103 c7 -3 16 -2 19 1 4 3 -2 6 -13 5 -11 0 -14 -3 -6 -6z"/>
<path d="M5975 2085 c22 -7 51 -13 65 -13 l25 0 -25 7 c-14 4 -43 11 -65 14
l-40 6 40 -14z"/>
<path d="M6100 2050 c0 -6 8 -13 18 -16 9 -3 34 -14 55 -25 22 -10 45 -19 53
-19 13 0 17 -11 29 -81 4 -26 0 -41 -14 -57 -10 -12 -23 -22 -28 -22 -5 0 -18
-7 -29 -15 -18 -14 -17 -15 10 -9 29 7 50 20 92 60 19 18 21 26 13 65 -4 24
-8 47 -9 52 0 4 -7 7 -16 7 -9 0 -28 8 -42 19 -21 14 -113 51 -129 51 -2 0 -3
-5 -3 -10z"/>
<path d="M4535 2040 c-3 -5 -15 -10 -26 -10 -25 0 -119 -61 -119 -77 0 -7 -4
-13 -10 -13 -17 0 -11 -35 9 -58 28 -33 44 -28 37 11 -8 42 11 69 69 97 42 20
79 60 56 60 -5 0 -13 -4 -16 -10z"/>
<path d="M4450 1830 c32 -25 43 -25 28 0 -7 11 -22 20 -33 20 -18 0 -18 -2 5
-20z"/>
<path d="M4520 1796 c14 -7 36 -17 50 -21 24 -7 24 -6 5 8 -11 8 -33 17 -50
21 l-30 6 25 -14z"/>
<path d="M6090 1780 c0 -12 17 -12 45 0 17 7 15 9 -12 9 -18 1 -33 -3 -33 -9z"/>
<path d="M6035 1760 c-3 -5 3 -10 14 -10 12 0 21 5 21 10 0 6 -6 10 -14 10 -8
0 -18 -4 -21 -10z"/>
<path d="M5888 1723 c6 -2 18 -2 25 0 6 3 1 5 -13 5 -14 0 -19 -2 -12 -5z"/>
<path d="M4910 1706 c0 -2 9 -6 20 -9 11 -3 20 -1 20 4 0 5 -9 9 -20 9 -11 0
-20 -2 -20 -4z"/>
</g>
</svg>
